<mxfile host="app.diagrams.net" agent="Mozilla/5.0 (Windows NT 10.0; Win64; x64) AppleWebKit/537.36 (KHTML, like Gecko) Chrome/131.0.0.0 Safari/537.36 Edg/131.0.0.0" version="25.0.3">
  <diagram name="Trang-1" id="KSFcgVVDNNg_zfRFRBZ-">
    <mxGraphModel dx="1489" dy="807" grid="1" gridSize="10" guides="1" tooltips="1" connect="1" arrows="1" fold="1" page="1" pageScale="1" pageWidth="827" pageHeight="1169" math="0" shadow="0">
      <root>
        <mxCell id="0" />
        <mxCell id="1" parent="0" />
        <mxCell id="TdNYFFaPeJnj5xiu9goa-13" value="" style="edgeStyle=orthogonalEdgeStyle;rounded=0;orthogonalLoop=1;jettySize=auto;html=1;" edge="1" parent="1" source="TdNYFFaPeJnj5xiu9goa-1" target="TdNYFFaPeJnj5xiu9goa-2">
          <mxGeometry relative="1" as="geometry" />
        </mxCell>
        <mxCell id="TdNYFFaPeJnj5xiu9goa-1" value="Khởi tạo node sensor" style="rounded=1;whiteSpace=wrap;html=1;" vertex="1" parent="1">
          <mxGeometry x="350" y="260" width="120" height="60" as="geometry" />
        </mxCell>
        <mxCell id="TdNYFFaPeJnj5xiu9goa-4" value="" style="edgeStyle=orthogonalEdgeStyle;rounded=0;orthogonalLoop=1;jettySize=auto;html=1;" edge="1" parent="1" source="TdNYFFaPeJnj5xiu9goa-2" target="TdNYFFaPeJnj5xiu9goa-3">
          <mxGeometry relative="1" as="geometry" />
        </mxCell>
        <mxCell id="TdNYFFaPeJnj5xiu9goa-2" value="Khởi tạo sensor&lt;div&gt;và relay&lt;/div&gt;" style="rounded=1;whiteSpace=wrap;html=1;" vertex="1" parent="1">
          <mxGeometry x="350" y="350" width="120" height="60" as="geometry" />
        </mxCell>
        <mxCell id="TdNYFFaPeJnj5xiu9goa-8" value="" style="edgeStyle=orthogonalEdgeStyle;rounded=0;orthogonalLoop=1;jettySize=auto;html=1;" edge="1" parent="1" source="TdNYFFaPeJnj5xiu9goa-3" target="TdNYFFaPeJnj5xiu9goa-7">
          <mxGeometry relative="1" as="geometry" />
        </mxCell>
        <mxCell id="TdNYFFaPeJnj5xiu9goa-3" value="Đọc dữ liệu cảm biến" style="whiteSpace=wrap;html=1;rounded=1;" vertex="1" parent="1">
          <mxGeometry x="350" y="440" width="120" height="60" as="geometry" />
        </mxCell>
        <mxCell id="TdNYFFaPeJnj5xiu9goa-10" value="" style="edgeStyle=orthogonalEdgeStyle;rounded=0;orthogonalLoop=1;jettySize=auto;html=1;" edge="1" parent="1" source="TdNYFFaPeJnj5xiu9goa-7" target="TdNYFFaPeJnj5xiu9goa-9">
          <mxGeometry relative="1" as="geometry" />
        </mxCell>
        <mxCell id="TdNYFFaPeJnj5xiu9goa-12" value="" style="edgeStyle=orthogonalEdgeStyle;rounded=0;orthogonalLoop=1;jettySize=auto;html=1;" edge="1" parent="1" source="TdNYFFaPeJnj5xiu9goa-7" target="TdNYFFaPeJnj5xiu9goa-11">
          <mxGeometry relative="1" as="geometry" />
        </mxCell>
        <mxCell id="TdNYFFaPeJnj5xiu9goa-21" value="Đạt ngưỡng" style="edgeLabel;html=1;align=center;verticalAlign=middle;resizable=0;points=[];" vertex="1" connectable="0" parent="TdNYFFaPeJnj5xiu9goa-12">
          <mxGeometry x="-0.1467" y="2" relative="1" as="geometry">
            <mxPoint x="21" y="-12" as="offset" />
          </mxGeometry>
        </mxCell>
        <mxCell id="TdNYFFaPeJnj5xiu9goa-7" value="Kiểm tra ngưỡng cảnh báo" style="rhombus;whiteSpace=wrap;html=1;rounded=1;" vertex="1" parent="1">
          <mxGeometry x="310" y="530" width="200" height="80" as="geometry" />
        </mxCell>
        <mxCell id="TdNYFFaPeJnj5xiu9goa-17" style="edgeStyle=orthogonalEdgeStyle;rounded=0;orthogonalLoop=1;jettySize=auto;html=1;entryX=0.5;entryY=0;entryDx=0;entryDy=0;" edge="1" parent="1" source="TdNYFFaPeJnj5xiu9goa-9" target="TdNYFFaPeJnj5xiu9goa-15">
          <mxGeometry relative="1" as="geometry" />
        </mxCell>
        <mxCell id="TdNYFFaPeJnj5xiu9goa-9" value="Không kích hoạt relay" style="whiteSpace=wrap;html=1;rounded=1;" vertex="1" parent="1">
          <mxGeometry x="520" y="620" width="120" height="60" as="geometry" />
        </mxCell>
        <mxCell id="TdNYFFaPeJnj5xiu9goa-16" style="edgeStyle=orthogonalEdgeStyle;rounded=0;orthogonalLoop=1;jettySize=auto;html=1;" edge="1" parent="1" source="TdNYFFaPeJnj5xiu9goa-11" target="TdNYFFaPeJnj5xiu9goa-15">
          <mxGeometry relative="1" as="geometry" />
        </mxCell>
        <mxCell id="TdNYFFaPeJnj5xiu9goa-11" value="Kích hoạt relay" style="whiteSpace=wrap;html=1;rounded=1;" vertex="1" parent="1">
          <mxGeometry x="180" y="620" width="120" height="60" as="geometry" />
        </mxCell>
        <mxCell id="TdNYFFaPeJnj5xiu9goa-20" style="edgeStyle=orthogonalEdgeStyle;rounded=0;orthogonalLoop=1;jettySize=auto;html=1;" edge="1" parent="1" source="TdNYFFaPeJnj5xiu9goa-15">
          <mxGeometry relative="1" as="geometry">
            <mxPoint x="410" y="420" as="targetPoint" />
            <Array as="points">
              <mxPoint x="670" y="750" />
              <mxPoint x="670" y="420" />
            </Array>
          </mxGeometry>
        </mxCell>
        <mxCell id="TdNYFFaPeJnj5xiu9goa-24" value="Chờ 5 giây" style="edgeLabel;html=1;align=center;verticalAlign=middle;resizable=0;points=[];" vertex="1" connectable="0" parent="TdNYFFaPeJnj5xiu9goa-20">
          <mxGeometry x="0.4359" y="2" relative="1" as="geometry">
            <mxPoint x="-13" y="-12" as="offset" />
          </mxGeometry>
        </mxCell>
        <mxCell id="TdNYFFaPeJnj5xiu9goa-15" value="Gửi dữ liệu đến gateway" style="rounded=1;whiteSpace=wrap;html=1;" vertex="1" parent="1">
          <mxGeometry x="350" y="720" width="120" height="60" as="geometry" />
        </mxCell>
        <mxCell id="TdNYFFaPeJnj5xiu9goa-19" value="" style="edgeStyle=orthogonalEdgeStyle;rounded=0;orthogonalLoop=1;jettySize=auto;html=1;" edge="1" parent="1" source="TdNYFFaPeJnj5xiu9goa-18" target="TdNYFFaPeJnj5xiu9goa-1">
          <mxGeometry relative="1" as="geometry" />
        </mxCell>
        <mxCell id="TdNYFFaPeJnj5xiu9goa-18" value="Bắt đầu" style="ellipse;whiteSpace=wrap;html=1;" vertex="1" parent="1">
          <mxGeometry x="350" y="140" width="120" height="80" as="geometry" />
        </mxCell>
        <mxCell id="TdNYFFaPeJnj5xiu9goa-22" value="Không đạt ngưỡng" style="text;html=1;align=center;verticalAlign=middle;resizable=0;points=[];autosize=1;strokeColor=none;fillColor=none;" vertex="1" parent="1">
          <mxGeometry x="500" y="548" width="120" height="30" as="geometry" />
        </mxCell>
      </root>
    </mxGraphModel>
  </diagram>
</mxfile>
